<svg xmlns="http://www.w3.org/2000/svg" viewBox="0 0 512 512">

<!-- background -->
<rect width="512" height="512" rx="120" fill="#ffffff"/>

<!-- green ground -->
<path d="M0 360 Q256 300 512 360 L512 512 L0 512 Z"
fill="#4CAF50"/>

<!-- house 1 -->
<polygon points="110,260 160,210 210,260"
fill="#E53935"/>
<rect x="120" y="260" width="80" height="70"
fill="#E53935"/>
<rect x="145" y="285" width="20" height="25"
fill="#ffffff"/>

<!-- house 2 -->
<polygon points="220,240 270,190 320,240"
fill="#1E88E5"/>
<rect x="230" y="240" width="80" height="90"
fill="#1E88E5"/>
<rect x="255" y="270" width="20" height="30"
fill="#ffffff"/>

<!-- house 3 -->
<polygon points="330,260 380,210 430,260"
fill="#D81B60"/>
<rect x="340" y="260" width="80" height="70"
fill="#D81B60"/>
<rect x="365" y="285" width="20" height="25"
fill="#ffffff"/>

<!-- tree -->
<circle cx="420" cy="230" r="35" fill="#8BC34A"/>
<rect x="415" y="230" width="10" height="40"
fill="#6D4C41"/>

</svg>
